<svg xmlns="http://www.w3.org/2000/svg" viewBox="5.32 -60.03 462 76.32"><path d="M62.28-8.87c0-.87-.2-1.62-.6-2.25-.4-.63-.83-1.29-1.28-1.98-.59-.21-1.18-.46-1.75-.73-.57-.28-1.11-.66-1.59-1.15-.59.1-1 .05-1.23-.16-.23-.21-.56-.4-1.02-.57-1.6-.56-3.23-.96-4.9-1.2-1.67-.25-3.35-.53-5.02-.84-.45-.14-.97-.26-1.56-.36-.14-.04-.26-.08-.37-.13a.685.685 0 0 0-.36-.08c-.8 0-1.59.02-2.35.08-.77.05-1.55.07-2.35.07-1.57.04-3.15.06-4.75.08-1.6.02-3.19.06-4.75.13.42-.31.82-.65 1.2-1.02.38-.36.8-.72 1.25-1.07.21-.17.45-.32.71-.44.26-.12.49-.27.7-.44.38-.28.77-.62 1.15-1.02.38-.4.77-.76 1.15-1.07.9-.8 1.85-1.57 2.84-2.3 1-.73 2.03-1.39 3.11-1.98.17-.45.44-.82.81-1.1.36-.28.7-.56 1.02-.83l.47-.53c.07-.1.17-.15.31-.15h.83c.7-.8 1.38-1.6 2.04-2.4.66-.8 1.48-1.45 2.45-1.94.18-.48.37-.99.58-1.51.21-.52.56-.9 1.04-1.15.21-.66.32-1.34.32-2.03 0-1.15-.2-2.23-.58-3.24-.38-1.01-.71-2.04-.99-3.08-.66-.28-1.21-.63-1.64-1.07-.44-.43-.88-.9-1.34-1.38h-.26c-.17 0-.3.05-.39.15-.09.11-.18.16-.29.16-.07 0-.13-.03-.2-.1.03-.21 0-.38-.11-.5-.1-.12-.22-.22-.34-.29-.12-.07-.25-.15-.39-.23a.576.576 0 0 1-.26-.34c-.38-.04-.74-.06-1.07-.08a16.927 16.927 0 0 0-4.39.31c-1.09.23-2.2.43-3.31.6-.49.11-.98.17-1.46.19-.49.01-.98.06-1.46.13-.14 0-.4.08-.76.26-.37.17-.64.29-.81.36-.73.28-1.48.59-2.24.94-.77.35-1.55.52-2.35.52h-.21c-.18.25-.41.42-.71.53-.29.1-.62.21-.96.31l-1 .26c-.31.07-.59.19-.83.37h-1.15c-.59.34-1.29.65-2.09.91-.8.26-1.55.46-2.24.6-.21.28-.45.46-.73.55-.28.09-.59.15-.94.18l-.99.11c-.32.03-.6.12-.84.26a3.32 3.32 0 0 0-1.85-.89c-.72-.11-1.42-.17-2.12-.21-.87.45-1.48 1.11-1.82 1.98-.35.87-.61 1.76-.79 2.67.25.48.37 1.06.37 1.72 0 .35-.04.69-.11 1.02-.07.33-.15.67-.26 1.01.11.25.23.42.37.53.14.1.21.29.21.57 0 .21-.05.45-.13.73-.09.28-.15.51-.19.68a25.714 25.714 0 0 0-.1 4.39c.03.59.05 1.18.05 1.77 0 .17-.02.37-.08.6-.05.23-.11.43-.18.6-.07.49-.14.98-.21 1.49L6-21.4c-.21 1.6-.37 3.19-.49 4.77a63.43 63.43 0 0 0-.19 4.78c0 1.46.07 3.02.19 4.67.12 1.66.35 3.3.68 4.94.33 1.63.79 3.21 1.38 4.72.59 1.51 1.34 2.88 2.24 4.1.6.07 1.07.22 1.41.47.35.24.77.52 1.26.83.76-.07 1.44-.2 2.03-.39.59-.19 1.15-.4 1.67-.63a36.7 36.7 0 0 0 1.6-.73c.53-.26 1.13-.49 1.8-.7-.07-.38-.21-.76-.42-1.12a2.34 2.34 0 0 1-.31-1.18c0-.31.06-.61.2-.89-.24-.27-.52-.46-.83-.54-.31-.09-.65-.15-.99-.19-.35-.03-.69-.07-1.02-.1a2.67 2.67 0 0 1-.91-.26l-.06.1c0 .14.03.26.08.37.05.1.08.22.08.36 0 .14-.08.23-.24.26-.15.04-.28.06-.39.06-.48 0-.9-.26-1.25-.79-.35-.52-.63-1.19-.86-2.01-.23-.81-.41-1.71-.55-2.68-.14-.98-.24-1.93-.31-2.85-.07-.92-.12-1.76-.13-2.51-.02-.74-.03-1.27-.03-1.59 0-.69.02-1.4.05-2.11.04-.72.11-1.42.21-2.12v-.62c0-.21-.01-.42-.02-.63-.02-.21-.03-.42-.03-.63 0-.48.16-.87.47-1.14-.17-.35-.25-.72-.24-1.1.02-.38-.04-.77-.18-1.15.07-.17.18-.43.34-.78.16-.35.24-.58.24-.68 0-.38-.02-.74-.06-1.07-.03-.33-.05-.67-.05-1.02 0-1.56.09-3.12.26-4.67.18-1.55.26-3.11.26-4.67 0-.21 0-.41-.02-.6s-.03-.38-.03-.55c.42-.04.77-.17 1.05-.42.27-.24.54-.49.78-.76.24-.26.49-.49.76-.7.26-.21.58-.31.96-.31.18 0 .44.03.78.1.11-.38.39-.69.84-.94.45-.24.87-.36 1.25-.36.46 0 .8.14 1.05.41.73-.66 1.55-1.14 2.48-1.46.92-.31 1.78-.71 2.58-1.2.21.07.34.18.39.31.05.14.18.23.39.27.04-.21.09-.4.16-.58.07-.17.19-.29.37-.36l1.2-.27 2.19-.52c.73-.17 1.46-.28 2.19-.31.17-.1.32-.23.45-.37.12-.14.23-.27.33-.41.7.07 1.39.05 2.07-.06.68-.1 1.36-.15 2.06-.15.69 0 1.32.07 1.88.21.17-.07.27-.19.28-.34.02-.16.12-.24.29-.24h.16c.69.25 1.43.53 2.19.86.77.33 1.31.86 1.62 1.6-.21.2-.34.45-.39.73-.05.28-.08.55-.08.83 0 .21.02.37.05.47-.38.18-.69.43-.91.76-.23.33-.45.66-.65.99-.21.33-.45.64-.71.91-.26.28-.63.47-1.12.58.03.28.01.49-.08.62-.09.14-.2.27-.34.4-.14.12-.28.23-.42.34-.14.1-.24.26-.31.47a63.189 63.189 0 0 0-4.91 3.39l-4.8 3.65-3.13 2.4c-.25.18-.47.36-.68.55-.21.19-.44.36-.68.5-.35.21-.73.33-1.15.36-.42.04-.71.3-.88.79a.608.608 0 0 0-.45.05c-.12.07-.25.1-.39.1s-.23-.05-.26-.15c-.04.28-.12.48-.26.62s-.31.26-.5.37c-.19.1-.39.21-.6.31-.21.11-.38.23-.52.37a.63.63 0 0 0-.39-.19c-.16-.01-.31-.02-.45-.02h-.67c-.14.35-.34.6-.6.76-.27.15-.54.28-.81.39-.28.1-.57.2-.87.28-.29.09-.53.24-.7.45-.17.17-.25.38-.23.62.01.25-.1.37-.34.37h-.21c.07.77.21 1.45.44 2.06.23.61.58 1.21 1.07 1.8.63.07 1.26.22 1.91.45.64.22 1.19.58 1.64 1.07.17-.04.36-.06.55-.08a5.209 5.209 0 0 1 1.1 0c.19.02.39.04.6.08.8-.14 1.63-.24 2.5-.29.87-.05 1.75-.11 2.64-.18.88-.07 1.75-.18 2.58-.32.84-.14 1.62-.38 2.35-.73.35.07.7.12 1.04.13.35.02.72.03 1.1.03.7 0 1.4-.03 2.12-.08.71-.05 1.43-.08 2.16-.08h.68c.24.14.49.23.73.26.24.04.49.06.73.06.49 0 .97-.03 1.44-.08s.95-.08 1.43-.08c.39 0 .75.03 1.1.08.35.05.68.18.99.39.24.03.39-.04.44-.21.06-.17.2-.26.45-.26.1 0 .19.02.26.05 1.01.35 2.03.67 3.05.97 1.03.29 2 .72 2.9 1.28h1.15c.35.38.75.71 1.2.99.45.28.73.69.84 1.25-.35.21-.65.47-.89.78-.25.32-.51.61-.79.89-.45.14-.85.33-1.2.58l-1.04.67c-.35.21-.71.41-1.1.6-.38.2-.83.33-1.35.4-.84.9-1.88 1.56-3.14 1.98-1.25.42-2.45.75-3.6.99-.49.56-1.11.96-1.88 1.2-.76.25-1.46.54-2.09.89h-1.09c-.98.56-1.99 1.03-3.03 1.41-1.04.38-2.1.73-3.18 1.04-1.08.32-2.17.62-3.27.92-1.09.29-2.18.6-3.26.91-.31-.03-.63-.02-.94.05-.31.07-.63.12-.94.16-.14.38-.33.7-.57.94-.25.24-.42.56-.52.94.06.21.14.48.23.81.09.33.19.65.31.96.13.32.26.61.4.89.13.28.31.47.52.57.28.11.72.2 1.33.27.61.07 1.05.1 1.33.1.49 0 .93-.03 1.33-.1s.83-.16 1.28-.27c.03-.03.1-.05.21-.05.14 0 .2.07.18.21-.02.14.04.21.18.21h.16c.07-.24.12-.49.16-.73.03-.24.1-.45.21-.63.45.04.87-.09 1.27-.39.4-.29.8-.53 1.18-.7 1.15-.46 2.33-.79 3.55-.99 1.22-.21 2.4-.51 3.55-.89.21-.35.47-.59.78-.73.52 0 1.12-.13 1.78-.39.66-.27 1.23-.52 1.72-.76l.83-.37c.28-.14.56-.23.84-.28.28-.06.56-.13.84-.24.69-.28 1.42-.6 2.19-.96.76-.37 1.51-.57 2.24-.61.49-.48 1.04-.88 1.65-1.2.61-.31 1.21-.62 1.8-.94l1.3-.83c.42-.24.78-.43 1.07-.55.3-.12.66-.34 1.07-.65.7-.52 1.35-1.07 1.96-1.65.61-.57 1.28-1.05 2.01-1.43-.07-.38.01-.65.24-.78.22-.14.4-.34.54-.58-.1-.49-.03-.91.21-1.28.25-.36.37-.77.37-1.22zm65.15 11.01c-.17-.38-.38-.76-.6-1.12-.23-.37-.34-.76-.34-1.18v-.1c-1.22 0-2.37.16-3.45.47-1.08.31-2.17.71-3.29 1.2-.69-.35-1.37-.61-2.03-.78-.66-.18-1.38-.26-2.14-.26-.21 0-.42 0-.63.02-.21.02-.43.05-.68.08a1.66 1.66 0 0 1-.42-.52.779.779 0 0 0-.47-.42c-.17.07-.41.1-.73.1-.73 0-1.42-.14-2.08-.44a5.19 5.19 0 0 0-2.09-.44h-.52a.62.62 0 0 0-.29-.24c-.12-.05-.25-.08-.37-.1-.12-.02-.23-.05-.34-.11-.1-.05-.15-.16-.15-.34v-.1c-.11.03-.23.05-.37.05h-.31c-.59 0-1.21-.09-1.85-.29-.65-.19-1.18-.47-1.6-.86a70.98 70.98 0 0 1-3.16-.94 7.92 7.92 0 0 1-2.84-1.56h-1.25c-.8-.52-1.67-.96-2.61-1.31-.94-.35-1.9-.68-2.87-.99-.98-.31-1.92-.66-2.82-1.04-.91-.39-1.71-.89-2.4-1.52-.25.07-.54.07-.87 0-.33-.07-.63-.2-.91-.39s-.52-.42-.73-.68c-.21-.26-.31-.53-.31-.81v-.15c.69-.39 1.41-.74 2.16-1.07.75-.33 1.4-.79 1.96-1.39 1.46-.45 2.82-1.07 4.07-1.85 1.25-.78 2.58-1.47 3.97-2.06.45-.63.98-1.12 1.59-1.46.61-.35 1.21-.73 1.8-1.15.28-.21.66-.49 1.13-.84.46-.35.87-.52 1.22-.52.11 0 .19.02.26.05 0-.38.08-.68.24-.88.15-.21.35-.39.6-.53l.73-.41c.24-.14.42-.35.52-.63h1.1c.24-.42.38-.8.41-1.15.87-.35 1.62-.82 2.25-1.41.63-.59 1.19-1.24 1.7-1.96.5-.71 1-1.44 1.48-2.19.49-.75 1.05-1.43 1.67-2.06.07-.7.24-1.27.5-1.72.26-.46.58-.96.97-1.52-.04-.48.02-.97.18-1.46s.23-.97.23-1.46-.11-.91-.34-1.25c-.22-.35-.33-.72-.33-1.1 0-.07 0-.12.02-.16.02-.03.03-.08.03-.15-.28-.18-.51-.42-.68-.73-.18-.32-.31-.63-.42-.94a20.37 20.37 0 0 0-3.6-2.17c-1.29-.61-2.64-1.1-4.05-1.46-1.41-.37-2.82-.64-4.25-.81-1.43-.17-2.82-.26-4.18-.26-.59 0-1.18.02-1.77.05-.59.04-1.19.09-1.78.16-.31-.21-.66-.32-1.04-.32s-.73.11-1.05.32c-2.15 0-4.28.15-6.39.47-2.11.31-4.22.66-6.34 1.04-.18.14-.27.3-.29.47-.02.17-.17.26-.44.26-.14 0-.27-.02-.4-.08-.12-.05-.25-.07-.39-.07-.59 0-1.14.12-1.64.36-.51.24-1.05.37-1.65.37-.34 0-.6-.07-.78-.21-.1.35-.32.6-.65.75-.33.16-.68.28-1.05.37-.36.09-.72.19-1.07.31-.34.12-.62.32-.83.6-.04.04-.12.06-.26.06s-.27-.04-.39-.11a.882.882 0 0 0-.45-.1c-1.18.73-2.43 1.3-3.76 1.72-1.32.42-2.57.96-3.75 1.62-.39-.04-.72 0-1 .1-.27.11-.55.23-.83.37-.28.14-.56.26-.84.36-.27.11-.59.16-.94.16-.2 0-.36-.02-.47-.05-.97.59-1.99 1.09-3.05 1.51-1.06.42-2.11.85-3.16 1.31-.07.24-.13.51-.18.81-.05.29-.17.53-.34.7.38.38.65.84.81 1.36.16.52.37.99.65 1.41.25.14.56.21.94.21.49 0 .92-.13 1.31-.37l1.14-.73c1.12-.14 2.08-.43 2.9-.86.82-.44 1.66-.97 2.53-1.59h.21c.18 0 .42 0 .73.02.32.02.56-.06.73-.23.21-.07.3-.23.27-.47-.04-.25.07-.4.31-.47l.89-.21c.17-.07.36-.19.57-.37.21-.17.4-.28.57-.31.39-.1.75-.18 1.1-.24.35-.05.7-.16 1.04-.33.81-.32 1.6-.65 2.38-1 .78-.34 1.63-.52 2.53-.52h.42c.49-.45 1.09-.77 1.8-.96.71-.2 1.37-.38 1.96-.55.17.8.29 1.6.34 2.4.05.8.08 1.6.08 2.4 0 1.67-.08 3.34-.24 5.01-.16 1.67-.32 3.36-.49 5.07-.07.76-.11 1.53-.11 2.29 0 .77-.03 1.55-.1 2.35-.04.38-.1.8-.19 1.25-.08.46-.14.87-.18 1.26l-.63 5.48c-.17.07-.22.21-.15.42-.32.52-.68.96-1.1 1.33-.42.36-.62.88-.62 1.54 0 .73.16 1.26.49 1.59.33.33.62.77.86 1.33-.1 1.04-.16 2.14-.18 3.29-.02 1.15-.06 2.29-.13 3.42a42.25 42.25 0 0 1-.34 3.37c-.16 1.11-.43 2.17-.81 3.18-.24.59-.41 1.17-.5 1.72a12.134 12.134 0 0 0-.07 3c.03.44.08.88.15 1.34.11.31.16.67.16 1.09 0 .14-.04.28-.1.42-.07.14-.11.3-.11.47 0 .1.02.19.05.26.39.49.73.85 1.05 1.1.31.24.71.55 1.2.94.28 0 .44-.15.49-.45.06-.29.15-.53.29-.7.59.07 1.01.33 1.25.78.35-.28.7-.51 1.05-.7.35-.19.69-.4 1.04-.6.07-.32.11-.63.11-.94v-.89c0-.38-.01-.74-.03-1.07-.02-.33-.04-.69-.08-1.07.07-.28.13-.56.18-.84.06-.27.12-.57.19-.88-.18-.35-.26-.82-.26-1.41v-.89c0-.28-.04-.56-.11-.84.25-.76.4-1.61.47-2.53.07-.92.13-1.84.18-2.76.06-.93.13-1.82.24-2.69.1-.87.31-1.66.63-2.35.27.1.56.19.86.26.29.07.6.1.91.1.17 0 .32-.01.44-.02.13-.02.26-.05.4-.08.27.24.56.45.86.63.29.17.56.38.81.62.03-.14.15-.21.36-.21.11 0 .23.02.37.05.14.04.26.04.36 0 .7.39 1.39.72 2.09 1l2.14.78c.73.24 1.45.5 2.17.78.71.28 1.4.61 2.06.99.49-.03.96.08 1.41.34.45.27.85.52 1.2.76s.77.44 1.25.58c.49.13.99.26 1.52.39.52.12 1.03.26 1.54.41.5.16.94.4 1.33.71h.31c.56 0 1.16.1 1.8.31.65.21 1.25.44 1.83.68.57.24 1.1.48 1.56.71.47.22.83.34 1.08.34h2.61c.34.38.7.62 1.07.73.36.1.74.16 1.14.18.4.02.8.06 1.18.13.38.07.75.23 1.09.47 1.01-.07 1.99-.04 2.93.1.94.14 1.89.23 2.87.26.8-.27 1.65-.55 2.56-.83.9-.28 1.68-.68 2.35-1.2.31.1.64.16.99.16.66 0 1.2-.21 1.62-.61.41-.4.66-.94.73-1.64zm-20-41.66c0 .56-.12 1.08-.36 1.57-.25.49-.52.97-.84 1.46-.31.49-.63.97-.96 1.44-.33.47-.57.94-.71 1.43a63.85 63.85 0 0 1-5.01 4.13 80.975 80.975 0 0 0-5.12 4.12c-.27.07-.5.18-.67.34-.18.16-.44.23-.79.23-.28.39-.61.7-1.01.94-.4.25-.74.56-1.02.94-1.12.39-2.18.86-3.19 1.41-1.01.56-2.02 1.12-3.02 1.7-1.01.57-2.04 1.1-3.08 1.59-1.05.49-2.15.85-3.29 1.1.07-2.3.21-4.58.44-6.84s.44-4.54.65-6.84c.07-.8.12-1.58.16-2.35.03-.76.09-1.55.16-2.35v-.99c0-.38.03-.73.1-1.04.04-.21.09-.42.16-.63.07-.21.12-.42.15-.63.11-.52.18-1.04.21-1.56.04-.52.05-1.05.05-1.57v-.68c0-.24-.01-.48-.05-.73.25-.07.53-.17.86-.31.33-.14.67-.27 1.02-.39s.68-.25.99-.37c.32-.12.56-.2.73-.23.35-.07.74-.11 1.15-.11.42 0 .82-.02 1.2-.05l2.72-.21c.9-.07 1.81-.1 2.71-.1.49 0 .97.01 1.44.05.47.03.95.09 1.43.16.21.03.43.07.66.13.22.05.44.09.65.13h1.15c.45 0 .9.04 1.35.13.46.08.91.18 1.36.28.91.25 1.79.54 2.66.89.87.35 1.76.66 2.67.94.21.28.44.51.7.68.26.17.51.36.76.55.24.19.44.41.6.65.16.24.23.57.23.99zm47.19 45.73c0-.49-.16-.94-.49-1.36-.33-.41-.65-.78-.97-1.09h-.36c-.28 0-.52.07-.71.21-.19.14-.42.21-.7.21-.14 0-.25-.02-.31-.06.06-.34.05-.61-.06-.78-.1-.17-.24-.32-.41-.44-.18-.12-.37-.24-.58-.34-.21-.11-.36-.26-.47-.47-.52-.98-.93-2.01-1.23-3.11-.29-1.09-.44-2.18-.44-3.26-.21-.11-.36-.26-.47-.47-.1-.21-.19-.42-.26-.63.24-.48.39-.97.44-1.46.06-.49.08-.99.08-1.51 0-.49-.01-.97-.02-1.44-.02-.47-.01-.95.02-1.43.07-.7.22-1.38.45-2.04.22-.66.33-1.36.33-2.09 0-.31-.01-.62-.05-.91-.03-.3-.05-.62-.05-.97 0-.28.04-.54.1-.78.07-.24.2-.47.37-.68-.1-.28-.17-.53-.21-.76-.03-.22-.09-.47-.16-.75.25-.28.37-.68.37-1.2 0-.35-.03-.68-.08-1a5.84 5.84 0 0 1-.08-.93c0-.46.07-.88.21-1.28.14-.4.25-.81.32-1.23.17-1.01.24-2 .2-2.98-.03-.97.02-1.96.16-2.97.14-.98.34-1.91.6-2.79.26-.89.39-1.82.39-2.8 0-.87-.05-1.72-.15-2.56-.11-.83-.16-1.67-.16-2.5 0-.28.01-.56.03-.84.01-.27.04-.55.07-.83.04-.14.08-.28.13-.42.06-.14.08-.26.08-.36 0-.49-.06-.99-.18-1.49-.12-.51-.22-.99-.29-1.44-.28-1.91-.64-3.8-1.09-5.66-.46-1.86-1.01-3.68-1.67-5.46-.42-.14-.94-.21-1.57-.21-.38 0-.78.07-1.2.19-.42.12-.75.37-.99.75.07.21.1.44.1.68v.63c0 1.08-.1 2.14-.31 3.18-.21 1.05-.31 2.11-.31 3.19 0 .35.02.68.07.99.06.31.08.61.08.89 0 .31-.09.5-.28.57-.2.07-.29.24-.29.52 0 .32.02.64.08.97.05.33.07.69.07 1.07 0 1.6-.15 3.17-.47 4.72a24.08 24.08 0 0 0-.46 4.73c0 .21 0 .42.02.62.02.21.03.42.03.63-.28.94-.49 1.89-.63 2.85-.14.95-.27 1.92-.39 2.89-.12.98-.27 1.95-.44 2.93-.18.97-.44 1.91-.79 2.82.25.13.37.4.37.78 0 .73-.17 1.49-.5 2.3-.33.8-.69 1.61-1.09 2.45-.4.83-.79 1.68-1.15 2.53-.37.85-.59 1.7-.66 2.53-.9 1.57-1.84 3.07-2.81 4.52-.98 1.44-2.02 2.88-3.14 4.3-.73.39-1.41.87-2.03 1.47-.63.59-1.26 1.16-1.91 1.72-.64.56-1.32 1.03-2.03 1.41-.72.38-1.53.57-2.43.57-.17 0-.34-.01-.5-.02-.15-.02-.32-.05-.49-.08a9.35 9.35 0 0 1-1.26-1.99c-.34-.73-.52-1.47-.52-2.24 0-.56.11-1.08.32-1.57-.07-.52-.11-1.02-.11-1.51v-1.51c0-2.02.12-4.02.37-6.01.24-1.98.52-3.96.83-5.95.32-1.98.59-3.97.84-5.95.24-1.98.36-3.97.36-5.95 0-.7-.01-1.4-.05-2.11-.03-.72-.09-1.42-.16-2.12.25-.24.41-.53.5-.86.09-.33.13-.67.13-1.02s-.02-.69-.05-1.04c-.04-.35-.05-.7-.05-1.05 0-.87.12-1.7.36-2.5s.37-1.62.37-2.46c0-1.11-.19-2.17-.55-3.18-.37-1.01-.86-1.97-1.49-2.87-.35.03-.61-.03-.78-.18-.18-.16-.42-.24-.73-.24-.07 0-.13.01-.19.03-.05.01-.11.02-.18.02-.45.32-.8.69-1.04 1.13-.25.43-.43.89-.55 1.38-.12.49-.19.99-.21 1.51a40.1 40.1 0 0 0-.03 1.52v2.19c0 2.33-.18 4.64-.54 6.92-.37 2.28-.55 4.58-.55 6.91 0 .39.01.76.02 1.13.02.36.05.74.08 1.12-.17.31-.27.64-.28.99-.02.35-.03.7-.03 1.07 0 .37-.04.71-.11 1.04-.06.33-.22.62-.47.87.04.34.07.68.08 1.01.02.33.03.67.03 1.02 0 2.19-.42 4.3-1.25 6.32.17.07.27.23.31.49.03.26.05.48.05.66v.57c-.07.49-.17.99-.31 1.51-.14.53-.24 1.03-.31 1.52-.18 1.22-.31 2.44-.4 3.68-.08 1.23-.13 2.46-.13 3.68 0 .28-.01.6-.02.96-.02.37.01.71.08 1.02.07.28.17.57.31.86.14.3.26.59.36.87l1.94 4.38c.83.7 1.77 1.19 2.81 1.49 1.05.29 2.11.44 3.19.44 1.18 0 2.44-.19 3.76-.57.45-.39.94-.74 1.46-1.07.52-.33 1.08-.6 1.67-.81 2.05-2.02 4.05-4.06 5.98-6.11 1.93-2.05 3.63-4.33 5.09-6.84.14-.24.28-.58.44-1.02.16-.43.32-.87.5-1.33.17-.45.36-.86.57-1.22.21-.37.45-.6.73-.71-.07.31-.09.71-.08 1.18.02.47.01.94-.02 1.41-.04.47-.14.88-.32 1.25-.17.36-.47.58-.88.65.55.11.87.42.94.94.07.59.1 1.17.1 1.75 0 .57.04 1.16.1 1.75.18 2.02.55 4.04 1.13 6.08a13.1 13.1 0 0 0 3 5.4c.7.35 1.48.59 2.35.71.87.12 1.7.27 2.5.44.28-.17.61-.34 1-.49.38-.16.74-.34 1.09-.53.35-.19.65-.43.89-.73.24-.29.36-.65.36-1.07zm54.19-18.16c-.42-.77-1.11-1.21-2.09-1.31-.45.28-.85.55-1.2.81s-.82.43-1.41.5c-.07.17-.12.33-.15.47-.04.13-.11.29-.21.47-.8.31-1.52.72-2.14 1.22-.63.51-1.26 1.03-1.88 1.57-.63.54-1.27 1.03-1.93 1.49-.66.45-1.43.76-2.3.94-.21.41-.52.72-.94.91-.42.19-.85.32-1.31.39-.24.28-.45.55-.62.81-.18.26-.47.39-.89.39-.14 0-.24-.03-.31-.1-.14.28-.24.51-.29.7-.05.19-.22.34-.5.45-.73.27-1.42.6-2.08.99L186.63-.1c-.63.38-1.28.75-1.94 1.12-.66.36-1.35.65-2.08.86-.18.17-.37.38-.58.63-.21.24-.4.4-.57.47-.14.07-.31.13-.5.2s-.37.14-.55.21c-.59.18-1.17.33-1.75.47-.57.14-1.14.35-1.69.63-.66-.04-1.18-.04-1.54 0-.37.03-.85.16-1.44.36-1.46-.2-2.84-.68-4.15-1.43a8.961 8.961 0 0 1-3.16-3.05c-.21-.39-.4-.89-.57-1.52-.17-.62-.32-1.28-.44-1.96-.13-.67-.21-1.34-.27-1.98a21.575 21.575 0 0 1 .03-3.81c.07-.71.24-1.42.52-2.11-.03-.18-.06-.36-.08-.55a8.897 8.897 0 0 1 .5-3.58c.35-.97.71-1.97 1.1-2.97-.07-.6-.02-1.25.15-1.96.18-.72.42-1.32.73-1.8v-.32c0-1.11.15-2.19.45-3.23.29-1.05.56-2.09.81-3.13.07-.39.13-.76.18-1.13.05-.36.11-.74.18-1.12l.11-.99c.03-.18.1-.31.21-.39.1-.09.2-.22.31-.39a4.43 4.43 0 0 1 0-1.36c.07-.45.16-.92.26-1.39.1-.47.2-.93.29-1.38.08-.45.13-.92.13-1.41v-.52c0-.17-.04-.35-.11-.52.25-.52.42-1.07.53-1.65.1-.57.17-1.15.2-1.75l.16-1.77c.07-.59.21-1.17.42-1.72-.31-.59-.66-1.1-1.05-1.52-.38-.41-.66-.97-.83-1.67-.18-.07-.35-.12-.52-.15-.18-.04-.35-.06-.53-.06-.59 0-1.15.13-1.69.37s-1.05.5-1.54.78c-.04 1.95-.12 3.89-.26 5.82-.14 1.93-.37 3.86-.68 5.77-.11.59-.22 1.21-.34 1.85-.12.65-.25 1.27-.39 1.86-.07.21-.16.48-.26.81-.11.33-.16.58-.16.75 0 .21.03.4.1.58.07.17.11.36.11.57 0 .14-.04.37-.13.68-.09.31-.19.64-.31.97-.13.33-.25.64-.37.94-.12.29-.22.49-.29.6.04.48.01.98-.08 1.48-.08.51-.19 1.01-.31 1.52-.12.5-.24 1.02-.36 1.54-.13.52-.19 1.04-.19 1.56v.27c-.28.2-.46.48-.55.83-.08.35-.28.61-.6.78 0 .77-.12 1.52-.36 2.25s-.37 1.41-.37 2.03c0 .18.06.27.16.29.1.02.17.13.21.34-.31.35-.53.8-.65 1.36-.13.55-.29 1.04-.5 1.46 0 1.08-.05 2.15-.16 3.21-.1 1.06-.15 2.13-.15 3.21 0 .84.07 1.65.21 2.43.14.78.38 1.57.73 2.37-.11.18-.16.35-.16.53 0 .1.01.2.03.31.01.1.02.21.02.31 0 .21-.03.38-.1.52.45 0 .76.25.94.73.03.18.06.34.08.5.01.16.06.32.13.5.28.83.71 1.55 1.3 2.14.59.59 1.13 1.23 1.62 1.93.17.03.3 0 .37-.11.07-.1.15-.19.26-.26.17.8.54 1.36 1.12 1.67.57.32 1.24.51 2.01.58-.07.14-.07.23 0 .28.07.06.15.1.23.14.09.03.17.07.24.1.07.03.1.1.1.21 1.36.35 2.77.52 4.23.52 1.18 0 2.36-.09 3.53-.26 1.16-.17 2.32-.4 3.47-.68.24-.07.48-.12.7-.16.23-.03.43-.08.6-.15.8-.32 1.6-.73 2.4-1.26 1.33-.8 2.6-1.62 3.84-2.47 1.24-.86 2.6-1.54 4.1-2.07.28-.28.52-.55.73-.83.21-.28.45-.51.73-.68.45.03.87-.06 1.25-.29.38-.22.74-.5 1.07-.83.33-.33.63-.66.89-.97.26-.31.51-.54.76-.68.1-.07.21-.13.34-.18.12-.05.25-.11.39-.18.38-.18.75-.36 1.09-.55.35-.19.7-.39 1.05-.6 1.29-.8 2.46-1.72 3.52-2.77a79.26 79.26 0 0 0 3.11-3.23c.17-.07.34-.16.52-.27.17-.1.37-.15.57-.15.11 0 .2.02.27.05.27-.56.53-1.05.75-1.49.23-.43.34-1 .34-1.69zm9.87 14.56v-.16c0-.07-.02-.14-.05-.21-.21-.41-.53-.69-.94-.83-.42-.14-.87-.23-1.36-.26-.49-.04-.98-.05-1.46-.05-.49 0-.91-.06-1.26-.16-.48-.7-.83-1.47-1.04-2.32-.21-.86-.31-1.7-.31-2.54 0-.59.03-1.27.1-2.06.07-.78.17-1.58.29-2.4.12-.82.26-1.61.42-2.37.15-.77.34-1.43.54-1.99-.14-.31-.2-.68-.2-1.09 0-.87.15-1.7.47-2.48.31-.79.46-1.58.46-2.38 0-.31 0-.6-.02-.86s-.01-.53.02-.81c.11-1.39.31-2.77.61-4.12.29-1.36.47-2.75.54-4.18.07-1.67.19-3.31.34-4.93.16-1.62.24-3.27.24-4.94 0-.62-.01-1.25-.03-1.88-.02-.62-.02-1.25-.02-1.87 0-.46.01-.9.05-1.34.03-.43.05-.87.05-1.33 0-.48-.04-.96-.13-1.43a3.97 3.97 0 0 0-.5-1.33.42.42 0 0 0 .06-.21v-.21c0-.18-.02-.33-.06-.47-.03-.14-.05-.3-.05-.47 0-.14.02-.24.05-.31-.55-.42-1.21-.63-1.98-.63-1.04 0-1.95.26-2.71.78-.18.28-.28.59-.32.92-.03.33-.05.67-.05 1.01 0 .77.06 1.53.18 2.28.12.74.19 1.52.19 2.32 0 1.49-.08 2.97-.24 4.44-.16 1.46-.23 2.95-.23 4.48 0 .25.01.48.05.71.03.23.03.44 0 .65-.04.66-.12 1.3-.26 1.91a8.2 8.2 0 0 0-.21 1.85c0 .21.01.44.02.68.02.24.05.47.08.68-.31 1.18-.55 2.39-.7 3.63-.16 1.23-.3 2.47-.42 3.7-.12 1.24-.29 2.46-.5 3.68-.21 1.22-.54 2.4-.99 3.55.11.07.17.16.18.26.02.11.03.21.03.32 0 .17-.01.32-.03.44-.01.12-.02.27-.02.44v.27c-.28 1.04-.49 2.12-.63 3.23-.14 1.12-.21 2.23-.21 3.34 0 .66.05 1.44.13 2.33.09.88.23 1.78.42 2.68.19.91.45 1.76.78 2.56.34.8.74 1.45 1.23 1.93.28.32.72.49 1.33.53.61.03 1.11.12 1.49.26.28.07.56.2.84.39.27.19.55.3.83.34.21-.21.4-.33.57-.37.49-.17.95-.28 1.39-.34.43-.05.89-.2 1.38-.44.28-.42.61-.85.99-1.31.39-.45.58-.95.58-1.51zm41.5-18.11a6.79 6.79 0 0 0-1.23-1.88c-.5-.56-.91-1.19-1.22-1.88-.11-.04-.23-.06-.37-.06h-.37c-.17 0-.36.03-.57.08-.21.06-.4.1-.57.13-.18-.07-.28-.18-.32-.34-.03-.15-.19-.21-.47-.18-.21.21-.46.36-.75.45-.3.08-.6.15-.92.2-.31.06-.63.12-.96.19-.33.07-.62.17-.86.31-.28-.07-.49-.22-.63-.44-.14-.23-.4-.34-.78-.34-.14 0-.24.03-.29.1-.05.07-.09.16-.11.26-.01.11-.04.2-.07.29-.04.09-.11.13-.21.13-.8.07-1.6.13-2.4.18-.8.06-1.6.12-2.41.19-2.43.13-4.88.26-7.33.36-2.45.11-4.9.3-7.33.58-.28-.25-.52-.44-.71-.58-.19-.14-.48-.21-.86-.21-.77 0-1.61.15-2.53.45-.92.29-1.63.79-2.12 1.48 0 .11-.01.22-.02.34a2.54 2.54 0 0 0 .13 1.28c.1.28.22.57.36.86.14.3.26.59.37.86.1.28.16.6.16.94.27.07.48.22.62.45.14.22.4.34.78.34a.9.9 0 0 0 .5-.13c.12-.09.23-.18.31-.26.09-.09.19-.18.29-.27.11-.08.26-.13.47-.13.18 0 .38.04.63.11.24.07.48.1.73.1.45 0 .9-.05 1.36-.15.45-.11.92-.16 1.41-.16.59 0 1.14.1 1.67.31.03-.1.04-.24.02-.41-.02-.18.05-.3.18-.37.18.21.44.31.79.31.21 0 .42-.01.65-.02.23-.02.44-.03.65-.03.45 0 .75.18.89.52.45-.21.9-.34 1.33-.39.44-.05.9-.08 1.38-.08.56 0 1.08-.01 1.57-.02.49-.02 1.01-.12 1.57-.29.31.07.63.12.96.16.33.03.69.05 1.07.05.28 0 .59-.04.92-.13.33-.09.58-.31.75-.65.28.17.52.34.71.49.19.16.46.25.81.29.28-.14.5-.21.68-.21.38 0 .73.06 1.04.18.31.12.64.19.99.19.38 0 .78-.13 1.2-.37v.57c.49-.31 1.01-.54 1.57-.67.56-.14 1.12-.27 1.69-.37.58-.1 1.14-.23 1.7-.37.56-.13 1.1-.34 1.62-.62-.07-.28-.05-.46.05-.55.11-.09.16-.23.16-.44 0-.07-.02-.13-.05-.16.27-.07.54-.17.81-.31.26-.14.56-.23.91-.26zm47.14 13.57c0-.7-.11-1.35-.34-1.96a7.2 7.2 0 0 1-.44-1.9c-.56-.7-1.21-1.3-1.94-1.81-.73-.5-1.49-.97-2.29-1.4-.8-.44-1.6-.87-2.4-1.28-.81-.42-1.54-.91-2.2-1.47-1.67-.38-3.25-.93-4.75-1.64a60.26 60.26 0 0 0-4.59-1.96c-.04.14-.16.21-.37.21-.17 0-.33-.02-.47-.08-.14-.05-.29-.09-.47-.13-.34-.38-.78-.68-1.3-.91-.52-.23-1.06-.43-1.62-.6l-1.67-.52c-.56-.18-1.04-.42-1.46-.73-.38-.04-.75-.12-1.1-.24-.35-.12-.73-.16-1.15-.13-1.15-.7-2.3-1.41-3.47-2.14a41.4 41.4 0 0 1-3.37-2.35c-1.07-.83-2.08-1.75-3.02-2.74-.94-.99-1.76-2.1-2.46-3.31-.03-.49-.11-.99-.23-1.49-.12-.51-.18-1-.18-1.49 0-.1 0-.23.02-.37.02-.13.03-.27.03-.41.28-.21.49-.46.62-.76.14-.3.27-.6.37-.91.1-.32.2-.64.29-.97.08-.33.21-.62.39-.86.21-.28.46-.48.76-.6.29-.12.54-.31.75-.55.25-.28.39-.56.45-.83.05-.28.28-.49.7-.63.66-.24 1.2-.52 1.62-.84.42-.31.87-.73 1.36-1.25.66-.24 1.25-.54 1.77-.89l1.62-1.09c.56-.39 1.13-.74 1.72-1.07.59-.33 1.26-.57 1.99-.71.2-.28.48-.47.83-.57.35-.11.63-.3.84-.58.55-.03 1.1-.13 1.64-.28.54-.16 1.09-.32 1.65-.47.55-.16 1.1-.3 1.64-.42a7.56 7.56 0 0 1 1.64-.18h.47c.14 0 .3.03.47.1.18.38.47.67.89.86.42.19.85.29 1.31.29.41 0 .83-.08 1.25-.24.42-.15.76-.4 1.04-.75.73.07 1.48.08 2.25.02.76-.05 1.49-.07 2.19-.07.52 0 1.05.03 1.59.1s1.04.24 1.49.52c0-.52.28-.78.84-.78l.26.05v-.63c0-.2-.02-.43-.06-.67a.817.817 0 0 0-.31-.58c.42-.17.8-.38 1.15-.62.35-.25.59-.61.73-1.1-.14-.17-.21-.4-.21-.68v-.21a6.12 6.12 0 0 1-.96-.47c-.3-.17-.48-.47-.55-.89-1.01-.17-2.03-.36-3.06-.57-1.02-.21-2.06-.31-3.1-.31-.25 0-.49.03-.73.1-.25.07-.49.11-.73.11-.18 0-.28-.07-.32-.21-.03-.14-.15-.21-.36-.21h-.11c-.1.17-.28.28-.52.31-.24.04-.45.05-.63.05-.27 0-.55-.01-.83-.05-.28-.03-.56-.02-.84.05-.69.11-1.34.29-1.95.55-.61.26-1.27.39-1.96.39h-.37c-.55.25-1.11.46-1.67.66-.55.19-1.13.28-1.72.28h-.37c-.06.21-.2.37-.41.47-.21.11-.43.19-.66.24-.22.05-.45.11-.67.18-.23.07-.41.21-.55.42-.38-.07-.67-.03-.86.13-.19.15-.46.23-.81.23h-.32c-.2.39-.47.65-.78.79-1.56.76-3.1 1.5-4.59 2.21-1.5.72-2.91 1.65-4.23 2.8-.28.03-.51.12-.68.26-.17.14-.34.29-.5.44-.15.16-.32.31-.49.45-.18.14-.42.2-.73.2-.04.28-.13.53-.29.74-.16.2-.25.45-.29.73-1.98.9-3.43 2.25-4.36 4.04-.92 1.79-1.38 3.73-1.38 5.82 0 1.5.24 3.03.73 4.6.21.17.4.39.58.65.17.26.26.56.26.91 0 .11-.04.26-.11.47.7.59 1.34 1.24 1.93 1.93.6.7 1.07 1.5 1.41 2.41.53.2 1.01.44 1.47.7.45.26.71.7.78 1.33.28-.07.47-.1.57-.1.46 0 .83.16 1.13.49.29.33.61.64.96.92.56.14 1.06.33 1.51.57.46.24.9.5 1.34.76.43.26.9.49 1.41.7.5.21 1.07.33 1.69.37.04.28.16.46.37.55.21.08.35.23.41.44h.21c.18 0 .3-.05.37-.16.07-.1.17-.17.31-.21.14.25.34.43.6.55.26.12.54.24.84.34.29.11.56.23.81.37.24.14.43.33.57.57.56 0 1.1.08 1.62.24.52.15 1.03.33 1.51.52.49.19.99.38 1.49.57.51.19 1.04.31 1.59.34.7.7 1.54 1.18 2.54 1.44.99.26 1.95.48 2.89.65.14.38.37.65.68.81.31.16.65.3.99.44.35.14.68.29.99.45.32.15.54.39.68.7 1.19.21 2.15.65 2.9 1.31s1.47 1.42 2.17 2.29c0 .07.01.15.02.24.02.09.03.16.03.23 0 .46-.11.79-.34 1.02-.23.23-.37.53-.44.91-1.64.94-3.19 1.76-4.65 2.46-1.46.69-3.15 1.13-5.06 1.3-.39.28-.85.51-1.39.68a17 17 0 0 1-1.67.45c-.57.12-1.14.2-1.69.26a17.15 17.15 0 0 1-2.85.02c-.43-.03-.84-.14-1.23-.31 0-.24-.01-.57-.05-.97-.03-.4-.11-.79-.23-1.17-.12-.38-.3-.71-.52-.99a1.08 1.08 0 0 0-.87-.42c-.31 0-.63.07-.96.21-.33.14-.65.21-.97.21h-.15c-.46.45-.82.96-1.1 1.54a4.15 4.15 0 0 0-.42 1.85c0 .87.21 1.7.63 2.48.42.78.96 1.44 1.62 1.96 1.04.1 2.08.22 3.13.36 1.04.14 2.09.21 3.13.21.59 0 1.15-.03 1.67-.1s1.08-.18 1.67-.32h.37c.45 0 .87.07 1.25.21.1-.14.26-.24.47-.31.21-.07.42-.12.63-.16.21-.03.41-.08.62-.13.21-.05.39-.15.52-.28h.37c1.15 0 2.25-.25 3.32-.74 1.06-.48 2.09-.95 3.1-1.4.31-.14.63-.26.94-.34.31-.09.61-.2.89-.34.38-.18.82-.5 1.33-.97.5-.47 1.02-.84 1.54-1.12.07-.52.24-.95.52-1.28.28-.33.57-.64.86-.94.3-.3.59-.62.86-.97.28-.34.46-.78.53-1.3.24.03.41-.01.52-.13.1-.12.24-.22.42-.29.03-.17.05-.43.05-.78zm51.47-16.5c0-.38-.02-.76-.05-1.15-.04-.38-.09-.76-.16-1.14-.38-.53-.94-.79-1.67-.79-.52 0-1.05.1-1.59.29-.54.19-1.07.36-1.59.5-.53.1-1.05.16-1.57.18-.52.02-1.04.02-1.57.02-.8 0-1.65 0-2.55-.02-.91-.02-1.76.09-2.56.34.07-.28.01-.43-.18-.45a.425.425 0 0 1-.4-.28c.21-.63.33-1.27.37-1.93l.1-2.04c.04-.7.09-1.37.16-2.01.07-.64.23-1.28.47-1.91-.07-.59-.02-1.19.16-1.8.17-.61.26-1.22.26-1.85 0-.31-.05-.66-.16-1.04.28-1.12.53-2.23.76-3.35.22-1.11.39-2.24.49-3.39.04-.52.07-1.1.08-1.75.02-.64.05-1.28.11-1.9.05-.63.15-1.24.28-1.83a5.3 5.3 0 0 1 .68-1.62c-.07-.35-.14-.69-.21-1.02-.07-.33-.1-.68-.1-1.07 0-.48.03-.94.08-1.38.05-.43.08-.9.08-1.38 0-.7-.09-1.45-.26-2.25-.32-.38-.71-.68-1.18-.89-.47-.2-.97-.31-1.49-.31-1.01 0-1.73.31-2.16.92-.44.6-.66 1.36-.66 2.27 0 .66.04 1.34.11 2.03.07.7.19 1.34.36 1.93-.38.25-.57.58-.57 1 0 .31-.01.58-.03.8-.01.23-.06.5-.13.81-.03.04-.03.07 0 .11 0 .28.06.52.16.73.1.21.17.43.21.68-.21.28-.35.58-.42.91-.07.33-.11.67-.13 1.02-.02.35-.04.69-.08 1.04-.03.35-.14.68-.31.99-.04-.03-.08-.04-.13-.02s-.08.06-.08.13c0 .1.1.19.29.26.19.07.28.19.28.37 0 .17-.04.36-.13.57-.08.21-.16.42-.23.63-.18.55-.31 1.13-.42 1.72l-.31 1.77c-.18 1.15-.32 2.31-.42 3.48-.1 1.16-.23 2.32-.37 3.47-.13 1.15-.3 2.3-.49 3.47-.19 1.16-.46 2.32-.81 3.47.1.28.16.56.16.84 0 .48-.13.95-.37 1.4-3.17.49-6.32 1.07-9.45 1.73-3.13.66-6.28 1.13-9.45 1.41-.07-.21-.1-.39-.1-.53 0-.27.04-.53.13-.78.09-.24.15-.49.18-.73.07-.76.08-1.52.03-2.27s-.01-1.49.13-2.22c.07-.24.16-.46.29-.65.12-.19.21-.43.28-.71.18-.73.27-1.49.29-2.29.02-.8.04-1.6.08-2.4.03-.49.12-.99.26-1.49.14-.51.24-1 .31-1.49s.1-1.08.08-1.77c-.02-.7.08-1.29.29-1.78-.07-1.32-.02-2.63.15-3.91.18-1.29.27-2.58.27-3.87 0-.87-.07-1.63-.21-2.29.45-.74.68-1.5.68-2.3 0-1.05-.36-1.93-1.07-2.66-.72-.73-1.6-1.08-2.64-1.05-.31.21-.58.47-.81.79-.23.31-.51.55-.86.73.03.41.02.83-.03 1.25-.05.42-.08.83-.08 1.25 0 .52.11 1.06.32 1.62-.42 1.22-.63 2.49-.63 3.81 0 1.01.14 1.92.42 2.72-.35 1.07-.62 2.16-.81 3.26-.19 1.09-.36 2.2-.5 3.31l-.05.11c0 .17.07.3.21.39.14.09.21.22.21.39v.21c0 .63-.03 1.23-.08 1.83-.05.59-.16 1.21-.34 1.88-.1.41-.22.87-.36 1.35-.14.49-.25.93-.32 1.31-.03.24-.05.49-.05.73v.73c-.07.8-.18 1.64-.34 2.51-.16.87-.48 1.67-.96 2.4.07.59.06 1.15-.03 1.69s-.2 1.09-.34 1.65c-.35.07-.7.15-1.04.26-.35.1-.7.16-1.05.16-.35 0-.64-.07-.89-.21-.03.45-.24.73-.62.83-.38.11-.73.21-1.05.32-.1.38-.15.74-.15 1.09 0 .7.14 1.37.42 2.01.27.64.62 1.23 1.04 1.75.38.1.77.14 1.17.1.4-.03.76.11 1.07.42-.07 1.46-.15 2.88-.26 4.26-.1 1.37-.15 2.77-.15 4.2a45.76 45.76 0 0 0 .21 4.49c.24.35.45.73.62 1.15.18.41.34.84.5 1.28.15.43.31.85.47 1.25.15.4.37.72.65.96.1.11.23.2.39.27.16.06.31.13.45.18a.7.7 0 0 1 .33.26c.09.12.13.29.13.49.53-.03 1.04-.05 1.54-.05.51 0 1.01-.01 1.52-.05.5-.03 1-.1 1.49-.18.48-.09.97-.25 1.46-.5-.07-.31-.08-.52-.03-.62a.31.31 0 0 1 .24-.19c.1-.01.21-.02.34-.02.12 0 .25-.04.39-.11.07-.55.24-1.07.52-1.54s.49-.95.63-1.43c-.63-.11-1.22-.31-1.78-.6-.56-.3-1.15-.45-1.77-.45-.39 0-.84.09-1.36.26-.49-.31-.85-.67-1.1-1.09.11-.14.16-.33.16-.58 0-.28-.08-.53-.24-.75-.15-.23-.25-.48-.28-.76-.07-.42-.11-.85-.11-1.31V-.68a40.586 40.586 0 0 1 .84-8.3c1.15-.28 2.3-.6 3.44-.96 1.15-.37 2.31-.71 3.48-1.02 1.16-.32 2.34-.59 3.52-.81 1.18-.23 2.37-.34 3.55-.34.38-.38.83-.65 1.33-.81.5-.16 1.02-.24 1.54-.24h.47c.14 0 .3.02.47.06l.78-.37c.25-.14.54-.21.89-.21.17 0 .3.02.37.06l-.21 1.67c-.07.55-.11 1.13-.11 1.72 0 .38.04.76.11 1.12.07.37.21.72.41 1.07-.27.45-.45.91-.52 1.38-.07.47-.1.95-.1 1.44 0 .45.02.91.05 1.38.03.47.05.95.05 1.44 0 .69-.07 1.32-.21 1.88.18.97.37 1.92.58 2.84.21.93.31 1.89.31 2.9.45.7.75 1.52.89 2.48s.29 1.84.47 2.64c.38.24.67.57.86.99.19.42.29.87.29 1.36 0 .27-.02.48-.06.62.56-.07 1.03.11 1.41.52.39.42.67.87.84 1.36.24-.03.44-.02.6.05.16.07.3.16.44.26.14.11.27.22.39.34.13.13.27.22.45.29.28-.07.54-.1.78-.1.35 0 .68.04.99.13.32.08.65.13 1 .13.59-.21 1.01-.58 1.27-1.1.27-.52.4-1.08.4-1.67 0-.35-.06-.71-.16-1.1-.38-.27-.73-.54-1.04-.78-.32-.24-.47-.63-.47-1.15v-.31c-.25-.07-.48-.13-.71-.18-.23-.06-.48-.08-.76-.08-.31-.35-.56-.73-.75-1.15-.19-.42-.36-.85-.5-1.3-.14-.46-.28-.9-.42-1.34-.14-.43-.33-.86-.57-1.28-.04-.73-.11-1.54-.21-2.42-.1-.89-.3-1.7-.57-2.43.06-2.4.11-4.79.13-7.18.01-2.38.18-4.77.49-7.18a4.97 4.97 0 0 1 1.8-.94c.72-.2 1.47-.37 2.27-.49s1.6-.21 2.41-.26c.8-.05 1.51-.12 2.14-.19.41.28.75.47 1.01.58.26.1.67.16 1.23.16.84 0 1.53-.2 2.09-.58.56-.38 1.03-.94 1.41-1.67.03-.1.05-.21.05-.31zm53.56-10.75c0-.28-.07-.46-.21-.55-.14-.09-.21-.29-.21-.6s-.02-.64-.08-.99c-.05-.35-.11-.72-.18-1.1-.59-3.48-1.76-6.73-3.5-9.76-.14-.21-.28-.45-.44-.73-.16-.28-.32-.52-.5-.73-.13-.17-.3-.32-.49-.45a5.44 5.44 0 0 1-.55-.39c-.94-.8-1.89-1.57-2.84-2.32-.96-.75-1.96-1.44-3.01-2.06h-.15c-.18 0-.26.07-.26.21 0 .14-.09.21-.26.21a.54.54 0 0 1-.27-.06c-.8-.73-1.74-1.17-2.81-1.33a45.56 45.56 0 0 0-3.19-.34c-.38-.52-.66-1.15-.83-1.88-.18-.73-.4-1.42-.66-2.08a5.35 5.35 0 0 0-1.04-1.7c-.44-.47-1.07-.71-1.91-.71-.66 0-1.28.13-1.88.4-.59.26-1.18.47-1.77.65-.14.07-.29.11-.44.13-.16.02-.31.06-.45.13-.28.14-.5.38-.68.73-.17.35-.45.61-.83.78-.84.46-1.52.95-2.06 1.49s-1.03 1.11-1.47 1.72c-.43.61-.86 1.23-1.27 1.86-.42.62-.94 1.25-1.57 1.88-.17.07-.29.2-.34.39-.05.19-.06.37-.03.55v.36c-.69.52-1.27 1.15-1.72 1.88-.45.73-.88 1.48-1.28 2.25-.4.76-.79 1.54-1.17 2.32-.39.78-.86 1.49-1.41 2.11.07.32.04.54-.08.68s-.17.31-.13.52v.16c-.17 0-.29.03-.34.1-.05.07-.11.16-.18.27l-.16.26c-.03.07-.12.1-.26.1-.77 1.91-1.58 3.79-2.45 5.64-.87 1.84-1.72 3.71-2.54 5.58-.81 1.88-1.57 3.77-2.27 5.67-.69 1.9-1.25 3.85-1.67 5.87-.1.56-.23 1.2-.39 1.93s-.23 1.36-.23 1.88c0 .32.04.67.13 1.07.08.4.16.74.23 1.02.18.9.32 1.81.42 2.71.1.91.3 1.81.57 2.72.35.07.6.25.73.55.14.29.25.6.32.91.03 0 .08-.02.13-.05.05-.04.09-.05.13-.05.17 0 .33.15.47.47.14.31.29.52.47.62.07.07.16.13.29.19.12.05.23.11.33.18.46.31.86.66 1.21 1.04.34.38.6.84.78 1.36.42-.1.84-.01 1.28.29.43.29.81.58 1.12.86.42.03.8.1 1.15.21l1.09.36c.39.14.76.26 1.13.37.36.1.74.15 1.12.15.21 0 .53-.08.97-.26.43-.17.73-.33.91-.47.21.11.38.23.52.37.14.14.35.21.63.21.48 0 .95-.07 1.38-.21.44-.14.88-.29 1.33-.44.45-.16.9-.32 1.33-.47.44-.16.9-.24 1.39-.24.17-.24.43-.46.78-.65.35-.19.68-.29.99-.29.28 0 .49.07.63.21.24-.49.63-.84 1.17-1.04.54-.21 1.02-.42 1.44-.63.28-.28.62-.55 1.02-.81s.8-.39 1.22-.39c.25 0 .44.03.58.1-.04-.45.13-.78.52-.99.17.04.29.08.34.13.05.05.15.08.29.08.03-.24.14-.44.33-.6.2-.16.4-.29.63-.39.23-.11.45-.2.68-.29.23-.09.43-.22.6-.39a21.54 21.54 0 0 0 3.68-2.22 24.89 24.89 0 0 1 3.63-2.27c.24-.63.66-1.07 1.25-1.33s1.17-.5 1.72-.71c.46-1.14 1.2-1.89 2.25-2.24.28-.49.62-.98 1.04-1.46.42-.49.84-.97 1.26-1.44.41-.47.8-.92 1.14-1.36.35-.43.63-.84.84-1.22.24-.45.42-.94.52-1.46.11-.53.38-.96.84-1.31.48-1.91.86-3.8 1.12-5.66.26-1.86.39-3.79.39-5.77zm-4.02 2.66c0 1.05-.13 2.07-.39 3.08-.26 1.01-.67 1.97-1.23 2.87v1.46c-.14.28-.28.51-.44.68-.16.18-.31.36-.47.55-.16.19-.3.4-.42.63-.12.22-.18.49-.18.81-.25 0-.43.05-.55.15-.12.11-.23.23-.31.37-.09.14-.19.27-.32.39-.12.12-.28.18-.49.18-.42.8-.93 1.52-1.54 2.17-.61.64-1.25 1.24-1.93 1.8-.68.56-1.39 1.08-2.12 1.57-.73.48-1.44.99-2.14 1.51-.42.31-.82.64-1.22.99s-.8.66-1.18.94c-.1.07-.24.14-.42.21a2.2 2.2 0 0 0-.41.21c-.6.28-1.17.58-1.73.91-.55.33-1.02.76-1.41 1.28h-1.09c-1.46.91-3.07 1.74-4.83 2.51-1.76.76-3.53 1.18-5.3 1.25-.38.42-.86.7-1.44.84-.57.13-1.14.2-1.69.2-.8 0-1.6-.07-2.4-.23-.8-.16-1.57-.36-2.3-.6a1.31 1.31 0 0 0-.26-.42c-.11-.1-.16-.28-.16-.52-.52-.07-.94-.24-1.25-.5-.31-.26-.6-.56-.86-.91s-.52-.71-.76-1.1c-.24-.38-.52-.73-.83-1.04-.28-1.32-.42-2.63-.42-3.92 0-1.11.07-2.24.21-3.39.14-1.15.27-2.28.41-3.39.21-.25.38-.53.5-.86.12-.33.37-.53.76-.6-.14-.28-.21-.56-.21-.84 0-.24.05-.46.15-.65.11-.19.22-.39.34-.6.13-.21.24-.43.34-.65.11-.23.16-.48.16-.76v-.26c.17-.11.3-.25.37-.42l.52-1.04c.1-.18.24-.32.42-.42.06-1.22.33-2.33.78-3.34.45-1.01 1.08-1.97 1.88-2.87.48-1.67 1.2-3.39 2.14-5.15.94-1.75 1.96-3.33 3.08-4.72.21-.94.55-1.73 1.02-2.38.47-.64.98-1.26 1.54-1.85.55-.59 1.09-1.2 1.61-1.83.53-.62.93-1.35 1.2-2.19.32-.07.6-.2.84-.39s.5-.29.78-.29c.11 0 .26.04.47.11-.03.1-.05.28-.05.52 0 .38.1.72.29 1.02.19.29.4.57.62.83.23.26.46.53.68.81.23.28.39.59.5.94.69.45 1.32.97 1.88 1.54.55.58 1.13 1.12 1.72 1.65.56-.11.97-.07 1.23.1s.63.26 1.12.26c.24 0 .45-.05.63-.16.17-.1.32-.21.44-.33l.39-.42c.14-.16.3-.29.47-.39-.24-1.08-.92-1.76-2.03-2.04-.07-.31-.11-.63-.11-.97 0-.33-.09-.63-.26-.91.52-.21 1.06-.31 1.62-.31.8 0 1.59.13 2.37.39.79.26 1.58.48 2.38.65.49.42.98.79 1.49 1.12.5.33 1.07.59 1.69.76-.07.35 0 .54.21.58.21.03.44.1.68.2.35.6.74 1.16 1.18 1.7.43.54.93 1.02 1.48 1.44.07.48.2.94.39 1.35l.6 1.26c.21.41.4.83.55 1.25.16.42.26.87.29 1.36l.63 1.15v.26c0 .17-.03.34-.08.49-.05.16-.17.27-.34.34.35 1.29.52 2.63.52 4.02zm58.99-20.72c0-.6-.06-1.2-.18-1.8a9.62 9.62 0 0 1-.19-1.86c0-.62.13-1.2.37-1.72-.14-.31-.25-.64-.34-.97-.09-.33-.16-.68-.23-1.07a8.612 8.612 0 0 1-2.25-3.18 9.937 9.937 0 0 0-4.46-1.83c-1.66-.24-3.28-.36-4.88-.36-1.12 0-2.24.02-3.37.08-1.13.05-2.25.07-3.37.07-.31.28-.67.47-1.07.58-.4.1-.81.19-1.22.26-.42.07-.83.16-1.23.29-.4.12-.78.3-1.12.54-.25 0-.42-.04-.53-.13-.1-.08-.26-.16-.47-.23-.48.24-.93.48-1.33.7-.4.23-.81.43-1.22.6-.42.18-.86.32-1.31.42-.45.11-.96.16-1.51.16l-.84.83c-.24.25-.54.46-.88.63-.21-.07-.41-.11-.58-.11-.14 0-.31.04-.52.11-.52.42-1.08.76-1.67 1.02-.59.26-1.19.5-1.8.73-.61.22-1.21.46-1.8.7-.6.25-1.15.56-1.67.94h-.94c-.6.59-1.33 1.06-2.2 1.39-.87.33-1.7.61-2.5.86.03.21.03.36 0 .47-.04.1-.16.19-.37.26-.69.28-1.36.62-2.01 1.04-.64.42-1.28.82-1.9 1.2-.18.04-.33.07-.47.11-.14.03-.3.05-.47.05-.18 0-.37-.05-.58-.16-.21.45-.48.83-.83 1.13-.35.29-.74.55-1.18.78-.43.22-.88.42-1.35.6-.47.17-.92.33-1.33.47-.18.45-.31.9-.4 1.36-.08.45-.13.92-.13 1.41 0 .48.06.93.16 1.35.66.28 1.24.66 1.72 1.15.32 0 .63.03.94.08.32.05.66.08 1.05.08.1 0 .23-.01.39-.03.15-.01.28-.06.39-.13.59-.28 1.22-.68 1.88-1.2.66-.52 1.27-.97 1.83-1.36 1.35-1.01 2.69-1.92 4.02-2.74 1.32-.82 2.81-1.47 4.48-1.96.18.28.3.59.37.92.07.33.1.67.1 1.02 0 .31-.01.61-.05.91-.03.3-.05.58-.05.86 0 .21.04.51.13.89s.15.71.18.99c.07.73.12 1.45.16 2.17.03.71.05 1.43.05 2.16 0 1.33-.03 2.66-.1 4-.07 1.34-.16 2.69-.26 4.04-.14.18-.25.37-.32.58-.07.21-.21.38-.41.52.17.31.27.64.31.99.03.35.05.7.05 1.04 0 .63-.06 1.27-.18 1.94-.12.66-.32 1.28-.6 1.88.03.97-.01 1.94-.13 2.92-.12.97-.27 1.95-.45 2.92-.17.98-.34 1.96-.52 2.95-.17.99-.29 1.98-.36 2.95l-.79 1.51c-.17 1.88-.4 3.76-.68 5.64-.27 1.88-.41 3.78-.41 5.69 0 .98.06 1.94.18 2.9s.37 1.89.76 2.79c1.15.7 2.45 1.05 3.91 1.05.18 0 .36-.01.55-.03.19-.02.39-.03.6-.03.24-.31.4-.63.47-.96.07-.33.1-.67.1-1.02v-.31c.6-.25.95-.72 1.07-1.44.13-.71.19-1.36.19-1.96 0-.17-.15-.43-.45-.78-.29-.35-.44-.76-.44-1.25h-1.36c.25-.18.37-.38.37-.63 0-.35-.09-.68-.26-1.02-.18-.33-.26-.67-.26-1.01V0c.21-.38.33-.79.36-1.23.04-.43.05-.86.05-1.28v-1.25c0-.45.06-.87.16-1.25 1.32-.21 2.47-.6 3.45-1.18.97-.57 1.96-1.29 2.97-2.16.31-.25.62-.51.92-.79.29-.27.6-.52.91-.73.49-.34.99-.67 1.51-.99.52-.31 1.05-.66 1.57-1.04a32.82 32.82 0 0 0 3.91-3.34c1.22-1.22 2.39-2.51 3.5-3.87.18-.07.31-.14.42-.23.1-.09.26-.13.47-.13.49-.87 1.11-1.5 1.88-1.88a18.63 18.63 0 0 1 2.3-2.92l2.55-2.67c-.07-.17-.01-.32.19-.44.19-.12.28-.29.28-.5 0-.1-.01-.17-.05-.21.98-.8 1.85-1.69 2.61-2.68.77-1 1.5-2.03 2.19-3.11.7-1.08 1.38-2.16 2.04-3.24.66-1.08 1.37-2.12 2.14-3.13.21-1.18.54-2.34.99-3.47.45-1.13.68-2.31.68-3.52zm-4.85-1.26c-.18.53-.31 1.13-.4 1.83-.08.7-.21 1.38-.39 2.06-.17.68-.42 1.3-.73 1.86-.31.55-.75.95-1.3 1.2.07.21.1.38.1.52 0 .35-.09.66-.26.94-.17.28-.3.59-.37.94-.17.17-.36.3-.57.39-.21.09-.4.16-.57.23 0 .39-.07.72-.21 1-.14.27-.3.54-.47.78-.18.24-.34.5-.5.78-.16.28-.25.59-.29.94-.94.91-1.81 1.86-2.61 2.85-.8.99-1.56 1.99-2.29 3-.25.07-.42.17-.53.31-.1.14-.29.21-.57.21a84.289 84.289 0 0 1-6.6 7.52c-2.32 2.33-4.73 4.59-7.23 6.78h-.84c-.49.67-1.09 1.27-1.8 1.81-.71.53-1.52.8-2.43.8h-.41c.24-2.4.54-4.78.91-7.15.36-2.36.74-4.73 1.12-7.1.04-.07.05-.15.05-.26 0-.17-.07-.29-.21-.36-.13-.07-.2-.21-.2-.42v-.05c.1-1.22.28-2.41.54-3.58.27-1.16.4-2.36.4-3.58 0-1.53-.25-3.02-.74-4.48.18-.11.3-.27.37-.47a.8.8 0 0 1 .37-.47c-.18-.8-.35-1.59-.53-2.35-.17-.77-.26-1.55-.26-2.35 0-.35.05-.7.13-1.05.09-.34.13-.64.13-.88 0-.28-.1-.46-.31-.53s-.3-.24-.26-.52c.28-.55.68-.98 1.2-1.28.52-.29 1.09-.55 1.7-.78.61-.23 1.21-.46 1.8-.7.59-.25 1.09-.58 1.51-1 .66 0 1.26-.16 1.8-.49.54-.33 1.11-.5 1.7-.5.1 0 .2.01.29.03.08.02.18.04.28.08a5.38 5.38 0 0 1 2.01-1.05c.75-.21 1.49-.31 2.22-.31h.73c.14 0 .23-.03.26-.08.04-.05.06-.13.08-.23.02-.11.13-.25.34-.42.45.1.85.03 1.18-.21.33-.24.68-.37 1.07-.37.34 0 .67.07.99.21.31.14.64.21.99.21.42 0 .84-.04 1.25-.13.42-.09.84-.13 1.26-.13.48 0 .8.07.96.21.16.14.46.28.91.42.39.1.87.17 1.44.21.57.03 1.02.13 1.33.31.45.28.8.69 1.05 1.25.24.56.59 1.01 1.04 1.36-.04.38-.03.77.03 1.17.05.4.16.76.34 1.07z" fill="#fff"/></svg>