<svg version="1.0" xmlns="http://www.w3.org/2000/svg"
 width="115.000000pt" height="112.000000pt" viewBox="0 0 115.000000 112.000000"
 preserveAspectRatio="xMidYMid meet">

<g transform="translate(0.000000,112.000000) scale(0.100000,-0.100000)"
fill="#000000" stroke="none">
<path d="M437 1065 c-132 -36 -275 -151 -331 -266 -101 -209 -63 -454 95 -609
75 -74 148 -116 249 -141 267 -68 535 79 627 343 19 53 24 89 24 161 0 159
-50 276 -163 382 -75 71 -138 107 -225 130 -69 18 -210 18 -276 0z m258 -59
c135 -36 242 -125 303 -253 36 -76 37 -81 37 -193 0 -112 -1 -117 -36 -190
-86 -178 -231 -271 -424 -271 -154 -1 -282 62 -371 183 -194 264 -66 638 247
722 69 19 180 20 244 2z"/>
<path d="M503 1000 c-134 -20 -267 -120 -331 -249 -36 -73 -37 -77 -37 -190 0
-113 1 -118 36 -192 187 -390 756 -321 845 103 51 243 -121 487 -372 528 -65
11 -66 11 -141 0z m84 -150 c44 10 98 -5 118 -33 29 -42 19 -80 -40 -150 -30
-35 -55 -67 -55 -71 0 -3 14 -6 30 -6 60 0 110 -45 110 -99 0 -28 -86 -106
-161 -145 -59 -30 -73 -34 -90 -23 -30 19 -23 33 29 52 84 32 182 113 182 151
0 32 -78 30 -154 -4 -27 -12 -52 -22 -56 -22 -13 0 -19 -25 -32 -135 -7 -58
-16 -105 -20 -105 -4 0 -14 9 -22 21 -15 22 -14 42 6 154 17 102 19 107 43
220 13 60 22 111 21 113 -2 1 -18 -9 -35 -24 -25 -21 -34 -24 -46 -14 -20 16
-13 25 51 66 30 19 54 41 54 50 0 11 4 13 16 6 9 -5 32 -6 51 -2z"/>
<path d="M574 800 c-12 -5 -24 -19 -27 -32 -3 -13 -14 -62 -25 -110 l-20 -87
22 14 c60 41 156 165 156 202 0 21 -4 23 -42 22 -24 0 -53 -4 -64 -9z"/>
</g>
</svg>